<?xml version="1.0" standalone="no"?>
<!DOCTYPE svg PUBLIC "-//W3C//DTD SVG 20010904//EN"
 "http://www.w3.org/TR/2001/REC-SVG-20010904/DTD/svg10.dtd">
<svg version="1.0" xmlns="http://www.w3.org/2000/svg"
 width="700.000000pt" height="700.000000pt" viewBox="0 0 700.000000 700.000000"
 preserveAspectRatio="xMidYMid meet">
<metadata>
Created by potrace 1.14, written by Peter Selinger 2001-2017
</metadata>
<g transform="translate(0.000000,700.000000) scale(0.100000,-0.100000)"
fill="#000000" stroke="none">
<path d="M218 6976 c-95 -39 -162 -108 -198 -202 -20 -55 -20 -59 -20 -3273
l0 -3218 35 -71 c44 -88 122 -162 201 -191 l55 -21 3227 2 3227 3 55 26 c70
33 136 99 169 169 l26 55 0 3240 0 3240 -25 50 c-37 76 -133 167 -203 193
l-58 22 -3217 0 -3217 0 -57 -24z m4612 -2246 c287 -46 526 -226 649 -492 54
-114 71 -184 78 -318 12 -241 -66 -444 -244 -630 l-68 -72 -56 74 c-101 134
-247 228 -390 252 l-74 12 -12 90 c-49 352 -297 606 -648 665 -38 6 -73 16
-77 22 -19 30 166 219 278 285 172 102 372 142 564 112z m-1574 -81 c253 -35
474 -203 574 -436 28 -65 54 -83 122 -83 240 -1 458 -159 539 -390 19 -54 23
-87 23 -197 2 -175 3 -177 152 -180 59 -2 125 -8 148 -14 140 -38 270 -161
321 -304 24 -66 41 -83 103 -100 154 -40 251 -160 260 -320 9 -169 -36 -266
-152 -325 l-69 -35 -1636 2 c-1627 1 -1636 1 -1716 22 -241 63 -391 206 -457
436 -19 68 -23 104 -23 240 0 182 9 225 78 360 54 106 189 243 292 297 147 76
306 103 464 78 93 -14 127 -6 153 38 13 22 15 50 10 153 -6 158 11 244 75 372
81 160 231 290 405 352 118 41 213 51 334 34z"/>
</g>
</svg>
